<svg width="44" height="54" viewBox="0 0 44 54" fill="none" xmlns="http://www.w3.org/2000/svg">
<path d="M38 11H32.625C32.625 9 32.125 7.20833 31.125 5.625C30.2083 4.04167 28.9583 2.79167 27.375 1.875C25.7917 0.875 24 0.375 22 0.375C20 0.375 18.2083 0.875 16.625 1.875C15.0417 2.79167 13.75 4.04167 12.75 5.625C11.8333 7.20833 11.375 9 11.375 11H6C4.5 11 3.20833 11.5417 2.125 12.625C1.125 13.625 0.625 14.875 0.625 16.375V48.375C0.625 49.7917 1.125 51.0417 2.125 52.125C3.20833 53.125 4.5 53.625 6 53.625H38C39.5 53.625 40.75 53.125 41.75 52.125C42.8333 51.0417 43.375 49.7917 43.375 48.375V16.375C43.375 14.875 42.8333 13.625 41.75 12.625C40.75 11.5417 39.5 11 38 11ZM16.625 21.625C16.625 22.375 16.375 23.0417 15.875 23.625C15.375 24.125 14.75 24.375 14 24.375C13.25 24.375 12.625 24.125 12.125 23.625C11.625 23.0417 11.375 22.375 11.375 21.625V16.375H16.625V21.625ZM22 5.625C23.5 5.625 24.75 6.16667 25.75 7.25C26.8333 8.25 27.375 9.5 27.375 11H16.625C16.625 9.5 17.125 8.25 18.125 7.25C19.2083 6.16667 20.5 5.625 22 5.625ZM32.625 21.625C32.625 22.375 32.375 23.0417 31.875 23.625C31.375 24.125 30.75 24.375 30 24.375C29.25 24.375 28.625 24.125 28.125 23.625C27.625 23.0417 27.375 22.375 27.375 21.625V16.375H32.625V21.625Z" fill="#8CFE34"/>
</svg>
