<svg width="54" height="49" viewBox="0 0 54 49" fill="none" xmlns="http://www.w3.org/2000/svg">
<path d="M27 48.875L23.125 45.375C18.7083 41.375 15.5 38.4167 13.5 36.5C11.5 34.5833 9.25 32.2083 6.75 29.375C4.33333 26.5417 2.66667 24 1.75 21.75C0.833333 19.4167 0.375 17.0417 0.375 14.625C0.375 10.5417 1.75 7.08333 4.5 4.25C7.33333 1.41667 10.8333 0 15 0C19.8333 0 23.8333 1.875 27 5.625C30.1667 1.875 34.1667 0 39 0C43.1667 0 46.625 1.41667 49.375 4.25C52.2083 7.08333 53.625 10.5417 53.625 14.625C53.625 17.875 52.5417 21.25 50.375 24.75C48.2083 28.25 45.8333 31.2917 43.25 33.875C40.75 36.4583 36.625 40.3333 30.875 45.5L27 48.875Z" fill="#8CFE34"/>
</svg>
