<svg width="48" height="47" viewBox="0 0 48 47" fill="none" xmlns="http://www.w3.org/2000/svg">
<path d="M21.715 8.875C19.3817 11.2083 18.215 14.0417 18.215 17.375C18.215 20.7083 19.3817 23.5417 21.715 25.875C24.0484 28.2083 26.8817 29.375 30.215 29.375C33.5484 29.375 36.3817 28.2083 38.715 25.875C41.0484 23.5417 42.215 20.7083 42.215 17.375C42.215 14.0417 41.0484 11.2083 38.715 8.875C36.3817 6.54167 33.5484 5.375 30.215 5.375C26.8817 5.375 24.0484 6.54167 21.715 8.875ZM18.215 33.375L4.96503 46.625L0.965027 42.625L14.215 29.375H16.34L17.09 28.625C14.34 25.4583 12.965 21.7083 12.965 17.375C12.965 12.5417 14.6317 8.41667 17.965 5C21.2984 1.66667 25.3817 0 30.215 0C35.0484 0 39.1317 1.66667 42.465 5C45.8817 8.41667 47.59 12.5417 47.59 17.375C47.59 22.2083 45.8817 26.2917 42.465 29.625C39.1317 32.9583 35.0484 34.625 30.215 34.625C28.465 34.625 26.465 34.2083 24.215 33.375C22.0484 32.5417 20.2984 31.5833 18.965 30.5L18.215 31.25V33.375Z" fill="#8CFE34"/>
</svg>
